<svg width="97" height="98" xmlns="http://www.w3.org/2000/svg" xmlns:xlink="http://www.w3.org/1999/xlink" xml:space="preserve" overflow="hidden"><g transform="translate(-1052 -258)"><g><g><g><g><path d="M1112.3 296.3C1108.1 296.3 1104.8 292.9 1104.8 288.8 1104.8 284.7 1108.2 281.3 1112.3 281.3 1116.5 281.3 1119.8 284.7 1119.8 288.8 1119.8 292.9 1116.4 296.3 1112.3 296.3ZM1129.2 284.1C1128.8 282.7 1128.3 281.4 1127.6 280.2L1129.2 275.5 1125.6 271.9 1120.9 273.5C1119.7 272.8 1118.4 272.3 1117 271.9L1114.8 267.5 1109.8 267.5 1107.6 271.9C1106.2 272.3 1104.9 272.8 1103.7 273.5L1099 271.9 1095.4 275.5 1097 280.2C1096.3 281.4 1095.8 282.7 1095.4 284.1L1091 286.3 1091 291.3 1095.4 293.5C1095.8 294.9 1096.3 296.2 1097 297.4L1095.4 302.1 1098.9 305.6 1103.6 304C1104.8 304.7 1106.1 305.2 1107.5 305.6L1109.7 310 1114.7 310 1116.9 305.6C1118.3 305.2 1119.6 304.7 1120.8 304L1125.5 305.6 1129.1 302.1 1127.5 297.4C1128.2 296.2 1128.8 294.8 1129.2 293.5L1133.6 291.3 1133.6 286.3 1129.2 284.1Z" fill="#24F47F" fill-rule="nonzero" fill-opacity="1"/><path d="M1089.7 332.7C1085.5 332.7 1082.2 329.3 1082.2 325.2 1082.2 321 1085.6 317.7 1089.7 317.7 1093.9 317.7 1097.2 321.1 1097.2 325.2 1097.2 329.3 1093.9 332.7 1089.7 332.7L1089.7 332.7ZM1105 316.6 1106.6 311.9 1103 308.3 1098.3 309.9C1097.1 309.2 1095.7 308.7 1094.4 308.3L1092.2 303.9 1087.2 303.9 1085 308.3C1083.6 308.7 1082.3 309.2 1081.1 309.9L1076.4 308.3 1072.9 311.8 1074.4 316.5C1073.7 317.7 1073.2 319.1 1072.8 320.4L1068.4 322.6 1068.4 327.6 1072.8 329.8C1073.2 331.2 1073.7 332.5 1074.4 333.7L1072.9 338.4 1076.4 341.9 1081.1 340.4C1082.3 341.1 1083.6 341.6 1085 342L1087.2 346.4 1092.2 346.4 1094.4 342C1095.8 341.6 1097.1 341.1 1098.3 340.4L1103 342 1106.5 338.4 1105 333.8C1105.7 332.6 1106.2 331.3 1106.6 329.9L1111 327.7 1111 322.7 1106.6 320.5C1106.2 319.1 1105.7 317.8 1105 316.6Z" fill="#24F47F" fill-rule="nonzero" fill-opacity="1"/></g></g></g></g></g></svg>