<svg width="97" height="98" xmlns="http://www.w3.org/2000/svg" xmlns:xlink="http://www.w3.org/1999/xlink" xml:space="preserve" overflow="hidden"><g transform="translate(-285 -270)"><g><g><g><g><path d="M371.406 347.019 357.349 332.938C355.197 330.782 351.563 330.846 348.869 332.938L344.707 328.776C355.576 317.036 354.87 298.707 343.13 287.838 331.389 276.969 313.061 277.675 302.192 289.415 291.323 301.155 292.029 319.484 303.769 330.353 314.938 340.694 332.205 340.627 343.294 330.2L347.454 334.361C346.563 335.48 346.016 336.833 345.878 338.256 345.692 339.934 346.268 341.608 347.448 342.816L361.5 356.892C362.568 357.941 364.013 358.517 365.51 358.492 367.477 358.458 369.351 357.65 370.726 356.243 372 355.002 372.795 353.352 372.972 351.582 373.16 349.903 372.585 348.229 371.406 347.019ZM304.42 289.908C310.666 283.645 319.586 280.843 328.292 282.408 332.043 283.054 335.608 284.513 338.735 286.683 346.106 291.718 350.511 300.073 350.5 309L340 309C339.708 309 339.431 309.128 339.241 309.349L334.489 314.893C334.486 314.898 334.48 314.899 334.475 314.896 334.474 314.895 334.473 314.894 334.472 314.893L330.966 301.742C330.824 301.208 330.276 300.891 329.742 301.034 329.432 301.116 329.181 301.342 329.066 301.642L321.757 320.542C321.755 320.547 321.75 320.55 321.744 320.548 321.741 320.547 321.739 320.545 321.738 320.542L316.983 294.818C316.882 294.275 316.361 293.916 315.818 294.017 315.46 294.083 315.166 294.339 315.051 294.684L310.279 309 296.524 309C296.512 301.839 299.353 294.968 304.42 289.908ZM308.57 331.508C301.626 326.889 297.209 319.318 296.606 311L311 311C311.431 311 311.813 310.724 311.949 310.316L315.71 299.033C315.712 299.028 315.717 299.025 315.723 299.027 315.726 299.028 315.728 299.03 315.729 299.033L320.421 324.407C320.502 324.847 320.866 325.18 321.312 325.221 321.343 325.221 321.374 325.221 321.405 325.221 321.818 325.221 322.188 324.967 322.337 324.582L329.814 305.248C329.816 305.243 329.821 305.24 329.827 305.242 329.83 305.243 329.832 305.245 329.833 305.248L333.033 317.248C333.176 317.782 333.724 318.099 334.257 317.956 334.452 317.904 334.627 317.794 334.758 317.641L340.46 311 350.418 311C349.328 325.866 336.392 337.034 321.526 335.943 320.606 335.876 319.69 335.761 318.781 335.6 315.125 334.979 311.643 333.584 308.57 331.508ZM369.318 354.823C367.369 356.766 364.498 357.061 362.918 355.479L348.863 341.4C348.104 340.607 347.74 339.516 347.871 338.426 348.006 337.127 348.595 335.917 349.535 335.009 351.483 333.065 354.354 332.77 355.935 334.353L369.991 348.432C370.75 349.225 371.113 350.316 370.983 351.406 370.847 352.705 370.258 353.915 369.318 354.823Z" fill="#24F47F" fill-rule="nonzero" fill-opacity="1"/></g></g></g></g></g></svg>