<svg width="97" height="96" xmlns="http://www.w3.org/2000/svg" xmlns:xlink="http://www.w3.org/1999/xlink" xml:space="preserve" overflow="hidden"><g transform="translate(-340 -144)"><g><g><g><g><path d="M413.5 207.1C411.9 205.5 409.5 204.7 407.3 205.2L402.8 200.8C406.8 195.6 409 189.2 409 182.6 409.1 165.9 395.6 152.4 379 152.3 362.4 152.2 348.9 165.7 348.8 182.3 348.7 198.9 362.2 212.4 378.8 212.5 385.4 212.5 391.9 210.3 397.2 206.3L401.6 210.7C401.2 213 401.9 215.3 403.5 217L416 229.5C418.7 232.2 423.2 232.2 425.9 229.5 428.6 226.8 428.6 222.3 425.9 219.6L413.5 207.1ZM379 206.5C365.7 206.5 355 195.8 355 182.5 355 169.2 365.7 158.5 379 158.5 392.3 158.5 403 169.2 403 182.5 403 195.7 392.2 206.5 379 206.5Z" fill="#24F47F" fill-rule="nonzero" fill-opacity="1"/><path d="M400.5 181 394.8 181C394.3 181.1 393.8 181.4 393.5 181.8L389.7 185.9 386.5 174.8C386.2 173.9 385.2 173.3 384.3 173.6 383.8 173.8 383.3 174.1 383.1 174.7L377.1 190.6 373 168.6C372.8 167.6 371.9 167 371 167.2 370.4 167.3 369.9 167.8 369.6 168.4L365.3 181 357.5 181 357.5 185 366.6 185C367.4 184.9 368.1 184.3 368.3 183.5L370.8 175.9 374.8 197.4C374.9 198.2 375.6 198.8 376.4 198.8L376.6 198.8C377.3 198.8 378 198.4 378.3 197.7L384.7 180.9 387.3 189.9C387.6 190.8 388.5 191.4 389.5 191.1 389.8 191 390.1 190.8 390.3 190.6L395.7 185 400.6 185 400.6 181Z" fill="#24F47F" fill-rule="nonzero" fill-opacity="1"/></g></g></g></g></g></svg>