<svg width="97" height="96" xmlns="http://www.w3.org/2000/svg" xmlns:xlink="http://www.w3.org/1999/xlink" xml:space="preserve" overflow="hidden"><g transform="translate(-53 -240)"><g><g><g><g><path d="M133 308.059 133 280.5C133 280.174 132.84 279.868 132.573 279.681L128.473 276.811C128.469 276.807 128.469 276.8 128.473 276.796L132.773 271.641C133.046 271.314 133.081 270.85 132.862 270.485L130.268 266.162C130.266 266.158 130.266 266.154 130.268 266.15L132.71 263.707C132.896 263.519 133.001 263.265 133 263L133 258.5C133 253.253 128.747 249 123.5 249L72.5 249C67.2803 248.982 63.0308 253.192 63 258.412 63.0021 261.297 64.3334 264.02 66.609 265.794 67.7072 266.57 69.0161 266.993 70.361 267.006 70.534 267.006 70.705 266.99 70.876 266.975 70.9168 266.986 70.9582 266.994 71 267L80 267 80 293.5C80.0001 293.765 80.1054 294.02 80.293 294.207L84.079 297.993 84.079 298.007 79.793 302.293C79.6054 302.48 79.5001 302.735 79.5 303L79.5 316.5C79.5 321.747 83.7533 326 89 326L131.724 326C136.391 326.058 140.359 322.606 140.948 317.976 141.479 313.046 137.927 308.614 133 308.059ZM74.815 265C75.5698 264.133 75.99 263.025 76 261.876 76.018 259.155 73.8272 256.935 71.1067 256.918 71.0711 256.917 71.0356 256.918 71 256.918 70.4477 256.918 70 257.366 70 257.918 70 258.47 70.4477 258.918 71 258.918 72.6273 258.889 73.9703 260.184 73.9995 261.811 73.9999 261.833 74.0001 261.854 74 261.876 73.9516 263.023 73.2722 264.049 72.235 264.541 70.8067 265.262 69.0953 265.126 67.799 264.188 66.0303 262.793 64.9988 260.664 65 258.412 65.0243 254.27 68.4019 250.932 72.544 250.956 76.6861 250.98 80.0243 254.358 80 258.5L80 265ZM81.5 316.5 81.5 303.414 86.207 298.707C86.5974 298.316 86.5974 297.684 86.207 297.293L82 293.086 82 258.5C82.0002 255.576 80.652 252.815 78.346 251.017 78.3421 251.013 78.3421 251.007 78.346 251.003 78.3476 251.001 78.3497 251 78.352 251L123.5 251C127.642 251 131 254.358 131 258.5L131 262.586 128.293 265.293C127.968 265.618 127.907 266.121 128.143 266.515L130.777 270.905 126.232 276.359C125.88 276.784 125.938 277.415 126.364 277.767 126.386 277.785 126.409 277.803 126.432 277.819L131 281.021 131 308 92 308.011C90.9026 307.943 89.8076 308.177 88.834 308.688 87.1379 309.525 86.0463 311.233 86 313.124 85.982 315.844 88.1728 318.065 90.8933 318.082 90.9289 318.083 90.9644 318.082 91 318.082 91.5523 318.082 92 317.634 92 317.082 92 316.53 91.5523 316.082 91 316.082 89.3727 316.111 88.0297 314.816 88.0005 313.189 88.0001 313.167 87.9999 313.146 88 313.124 88.0484 311.977 88.7278 310.951 89.765 310.459 91.1931 309.736 92.9052 309.873 94.201 310.812 95.9697 312.207 97.0012 314.336 97 316.588 96.9708 320.704 93.6158 324.019 89.5 324L89 324C84.8579 324 81.5 320.642 81.5 316.5ZM131.756 324 95.362 324C95.3573 324.002 95.3522 323.999 95.3505 323.995 95.3488 323.99 95.3513 323.985 95.356 323.983 99.439 320.848 100.207 314.996 97.0721 310.913 96.8252 310.592 96.5576 310.287 96.271 310L132 310C135.871 310.005 139.005 313.146 139.001 317.017 139 317.32 138.98 317.622 138.941 317.922 138.399 321.457 135.332 324.051 131.756 324Z" fill="#24F47F" fill-rule="nonzero" fill-opacity="1"/><path d="M103 265 120 265 120 267 103 267Z" fill="#24F47F" fill-rule="nonzero" fill-opacity="1"/><path d="M93 265 99 265 99 267 93 267Z" fill="#24F47F" fill-rule="nonzero" fill-opacity="1"/><path d="M103 295 120 295 120 297 103 297Z" fill="#24F47F" fill-rule="nonzero" fill-opacity="1"/><path d="M93 295 99 295 99 297 93 297Z" fill="#24F47F" fill-rule="nonzero" fill-opacity="1"/><path d="M93 275 110 275 110 277 93 277Z" fill="#24F47F" fill-rule="nonzero" fill-opacity="1"/><path d="M114 275 120 275 120 277 114 277Z" fill="#24F47F" fill-rule="nonzero" fill-opacity="1"/><path d="M93 285 120 285 120 287 93 287Z" fill="#24F47F" fill-rule="nonzero" fill-opacity="1"/></g></g></g></g></g></svg>