<svg width="98" height="96" xmlns="http://www.w3.org/2000/svg" xmlns:xlink="http://www.w3.org/1999/xlink" xml:space="preserve" overflow="hidden"><g transform="translate(-978 -96)"><g><g><g><g><path d="M1004 125 1004 150.5C1004 151.03 1004.21 151.539 1004.59 151.914L1007.67 155 1004.09 158.586C1003.71 158.961 1003.5 159.47 1003.5 160L1003.5 173.5C1003.51 179.296 1008.2 183.993 1014 184L1057 184C1062.52 184.006 1067 179.533 1067.01 174.01 1067.01 169.251 1063.66 165.147 1059 164.2L1059 137.5C1059 136.847 1058.68 136.235 1058.15 135.861L1054.93 133.609 1058.54 129.28C1059.08 128.626 1059.15 127.7 1058.71 126.971L1056.52 123.31 1058.41 121.41C1058.79 121.037 1059 120.53 1059 120L1059 115.5C1058.99 109.704 1054.3 105.007 1048.5 105L997.5 105C991.728 104.982 987.03 109.641 987 115.413 986.997 118.579 988.445 121.572 990.93 123.535 990.966 123.564 991.003 123.592 991.042 123.618 992.306 124.51 993.812 124.995 995.359 125.009ZM1001.57 121C1001.85 120.326 1002 119.605 1002 118.876 1002.02 115.608 999.393 112.94 996.126 112.917 996.084 112.916 996.042 112.916 996 112.917 994.895 112.917 994 113.812 994 114.917 994 116.022 994.895 116.917 996 116.917 997.069 116.882 997.964 117.721 997.999 118.79 998 118.818 998 118.847 998 118.876 997.95 119.651 997.477 120.335 996.77 120.656 995.669 121.195 994.361 121.082 993.37 120.361 991.872 119.156 991 117.336 991 115.413 991.024 111.823 993.954 108.933 997.544 108.956 1001.13 108.98 1004.02 111.91 1004 115.5L1004 121ZM1017 164.01C1015.74 163.952 1014.49 164.225 1013.37 164.803 1011.34 165.812 1010.05 167.862 1010 170.124 1009.98 173.392 1012.61 176.06 1015.87 176.083 1015.92 176.084 1015.96 176.084 1016 176.083 1017.1 176.083 1018 175.188 1018 174.083 1018 172.978 1017.1 172.083 1016 172.083 1014.93 172.118 1014.04 171.279 1014 170.21 1014 170.182 1014 170.153 1014 170.124 1014.05 169.349 1014.52 168.665 1015.23 168.344 1016.33 167.806 1017.64 167.922 1018.63 168.644 1020.13 169.848 1021 171.666 1021 173.587 1020.97 177.151 1018.06 180.02 1014.5 180L1014 180C1010.41 179.996 1007.5 177.088 1007.5 173.5L1007.5 160.829 1011.91 156.414C1012.69 155.633 1012.69 154.367 1011.91 153.586L1008 149.671 1008 115.5C1008 113.14 1007.21 110.849 1005.74 109L1048.5 109C1052.09 109.004 1055 111.912 1055 115.5L1055 119.171 1052.59 121.586C1051.94 122.235 1051.81 123.242 1052.29 124.029L1054.56 127.811 1050.46 132.72C1049.76 133.569 1049.87 134.83 1050.72 135.537 1050.76 135.573 1050.81 135.607 1050.85 135.639L1055 138.542 1055 164ZM1057 180 1022.76 180C1025.51 176.543 1025.75 171.714 1023.35 168L1057 168C1060.31 168 1063 170.686 1063 174 1063 177.314 1060.31 180 1057 180Z" fill="#24F47F" fill-rule="nonzero" fill-opacity="1"/><path d="M1028 121 1045 121 1045 125 1028 125Z" fill="#24F47F" fill-rule="nonzero" fill-opacity="1"/><path d="M1018 121 1024 121 1024 125 1018 125Z" fill="#24F47F" fill-rule="nonzero" fill-opacity="1"/><path d="M1028 151 1045 151 1045 155 1028 155Z" fill="#24F47F" fill-rule="nonzero" fill-opacity="1"/><path d="M1018 151 1024 151 1024 155 1018 155Z" fill="#24F47F" fill-rule="nonzero" fill-opacity="1"/><path d="M1018 131 1035 131 1035 135 1018 135Z" fill="#24F47F" fill-rule="nonzero" fill-opacity="1"/><path d="M1039 131 1045 131 1045 135 1039 135Z" fill="#24F47F" fill-rule="nonzero" fill-opacity="1"/><path d="M1018 141 1045 141 1045 145 1018 145Z" fill="#24F47F" fill-rule="nonzero" fill-opacity="1"/></g></g></g></g></g></svg>